<svg xmlns="http://www.w3.org/2000/svg" viewBox="0 0 115 66.96"><title>logo1</title><g id="Ebene_2" data-name="Ebene 2"><g id="Ebene_1-2" data-name="Ebene 1"><path d="M77.09,3.1c.5,0,.74.2.74.59a6,6,0,0,1-.44,1.62c-.3.79-.64,1.62-1,2.51s-.79,1.74-1.18,2.58a15.93,15.93,0,0,1-.89,1.7q-3.24,6-7.52,13.64t-8,13.79q-3.09,5.16-6.49,10.92a106.93,106.93,0,0,0-5.45,10.32,7.59,7.59,0,0,0-.74,2.65A2.17,2.17,0,0,0,47,65.27a6.69,6.69,0,0,0,2.07,1,13.3,13.3,0,0,0,2.43.52c.84.09,1.45.14,1.85.14,2.16,0,4.35-.09,6.56-.29s4.2-.44,6-.74c.49-.09.74-.29.74-.59s-.54-.44-1.62-.44a17.33,17.33,0,0,1-7.08-1.11,3.94,3.94,0,0,1-2.36-3.91,12.66,12.66,0,0,1,1.62-5.3q2.51-4.87,6.2-11.51t7.67-13.64q4-7,7.89-13.57L85.65,4.57a4.93,4.93,0,0,1,2.95-2.5,27,27,0,0,1,6.64-.74,17.64,17.64,0,0,1,9.07,2.21q3.76,2.22,3.76,8.41a21.37,21.37,0,0,1-2,8.85,27.41,27.41,0,0,1-5.46,8,27.81,27.81,0,0,1-8.26,5.76A24.59,24.59,0,0,1,82,36.73a25.31,25.31,0,0,1-3.76-.3,13.26,13.26,0,0,1-2.73-.59.52.52,0,0,0-.59.59c0,.2.15.4.44.59a18.73,18.73,0,0,0,6.49,1,37.51,37.51,0,0,0,13.94-2.43,35.46,35.46,0,0,0,10.4-6.19,28.66,28.66,0,0,0,6.57-8.12,17.46,17.46,0,0,0,2.28-8,11.53,11.53,0,0,0-1.69-6.42,12.81,12.81,0,0,0-4.43-4.13,18.76,18.76,0,0,0-6-2.14A37.73,37.73,0,0,0,96.27,0c-1.18,0-2.83.1-4.94.29S86.8.74,84.1,1s-4.59.34-7.64.54c-2,.13-7,0-7,0h-21s-4.74,0-6.91,0l-7.67-.09q-4.13,0-6.63-.22c-.49,0-.74.29-.75.88,0,.2,0,.32.07.37a2,2,0,0,0,.81.08c.79,0,1.79.05,3,.11s2.19.15,2.88.25c.88.11,1.12.65.72,1.63q-3.63,7.93-8.6,16.8T15.63,38.31Q12.47,43.73,8.12,50A130.32,130.32,0,0,0,.76,61.89,5.78,5.78,0,0,0,0,64.09a1.73,1.73,0,0,0,.36,1.19A3.43,3.43,0,0,0,2.19,66a31.58,31.58,0,0,0,4.2.48q2.73.18,7.3.23l1.62,0a10.55,10.55,0,0,0,1.77-.13c.5-.09.74-.28.75-.58s-.29-.59-.88-.6q-4.27,0-5.45-1a2.84,2.84,0,0,1-1.15-2.3,7.51,7.51,0,0,1,.47-2.35,95.85,95.85,0,0,1,4.45-9.17Q18.51,44.53,23.62,36a2.18,2.18,0,0,1,1.93-1.15,29.9,29.9,0,0,0,4.35.41c1.81.07,3.51.11,5.08.13l4.72,0c1.77,0,3.54,0,5.31,0l5.09-.09c1.63,0,3,0,4.06,0a3.09,3.09,0,0,0,1.2-1.54,6,6,0,0,0,.46-1.39l-.3-.3a55.51,55.51,0,0,1-9.38,1.59c-3.4.31-6.82.44-10.26.41a27.29,27.29,0,0,1-7.22-.82q-2.49-.76-2.49-1.65l3.24-5.87q2-3.66,4.36-7.62c1.56-2.64,3-5.15,4.44-7.55s2.55-4.22,3.45-5.49a6.63,6.63,0,0,1,1.12-1.32,3.29,3.29,0,0,1,1.71-.57c1.47-.08,3.22-.13,5.23-.16L55.88,3"/></g></g></svg>