<svg xmlns="http://www.w3.org/2000/svg" viewBox="0 0 98.66 69.49"><title>logo3</title><g id="Ebene_2" data-name="Ebene 2"><g id="Ebene_1-2" data-name="Ebene 1"><path d="M58.71,4l1.86,0,7.66.09c2.17,0,4.55,0,7.16-.14s5.24-.34,7.9-.66S88.51,2.58,91,2.06A32.87,32.87,0,0,0,97.34.14,1.42,1.42,0,0,1,97.93,0c.49,0,.74.16.73.45a10.94,10.94,0,0,0-2.1,3.37c-.41,1-1,1.47-1.79,1.46-1.77.08-3.69.13-5.75.15l-6.34.08-6.27.08c-2,0-3.77.08-5.24.16a3.29,3.29,0,0,0-1.71.57,6.67,6.67,0,0,0-1.12,1.32Q67,9.55,64.89,13.13C63.48,15.53,62,18,60.45,20.68s-3,5.18-4.36,7.62-2.43,4.4-3.23,5.87c0,.59.82,1.14,2.48,1.65a27,27,0,0,0,7.22.81,100.1,100.1,0,0,0,10.26-.4,56.54,56.54,0,0,0,9.38-1.59l.3.3A6.14,6.14,0,0,1,82,36.33a3,3,0,0,1-1.2,1.54c-1.08,0-2.43,0-4.06,0L71.69,38c-1.77,0-3.54,0-5.31,0l-4.72,0c-1.57,0-3.27-.06-5.08-.13-1.16,0-2.15-.12-3-.22.89,1.54,1.77,3,2.62,4.46Q59.29,47.22,62.69,53A108.17,108.17,0,0,1,68.14,63.3,7.59,7.59,0,0,1,68.88,66,2.19,2.19,0,0,1,68,67.8a6.69,6.69,0,0,1-2.07,1,14,14,0,0,1-2.43.52c-.84.09-1.45.14-1.85.14q-3.24,0-6.56-.29c-2.21-.2-4.2-.44-6-.74-.49-.1-.74-.29-.74-.59s.54-.44,1.62-.44a17.33,17.33,0,0,0,7.08-1.11,3.94,3.94,0,0,0,2.36-3.91,12.73,12.73,0,0,0-1.62-5.31q-2.51-4.86-6.2-11.5C50.75,44,49.85,42.42,49,40.82q-4.2,7.07-7,12.33a98.38,98.38,0,0,0-4.45,9.17A7.46,7.46,0,0,0,37,64.67,2.86,2.86,0,0,0,38.18,67q1.17,1,5.45,1c.59,0,.88.21.88.6s-.25.49-.75.58A10.55,10.55,0,0,1,42,69.3l-1.62,0q-4.57,0-7.3-.23a31.27,31.27,0,0,1-4.2-.49A3.44,3.44,0,0,1,27,67.81a1.78,1.78,0,0,1-.36-1.19,5.78,5.78,0,0,1,.76-2.2A129,129,0,0,1,34.8,52.55q4.35-6.28,7.51-11.72c1.12-1.88,2.26-3.82,3.4-5.77C45.12,34,44.55,33,44,32q-4-7-7.89-13.58L29.35,7.1a4.92,4.92,0,0,0-3-2.51,27.49,27.49,0,0,0-6.64-.73,17.54,17.54,0,0,0-9.07,2.21Q6.94,8.28,6.93,14.48a21.53,21.53,0,0,0,2,8.85,27.41,27.41,0,0,0,5.46,8A27.6,27.6,0,0,0,22.64,37,24.45,24.45,0,0,0,33,39.26,25.31,25.31,0,0,0,36.8,39a14,14,0,0,0,2.73-.59.52.52,0,0,1,.59.59c0,.2-.15.39-.44.59a18.69,18.69,0,0,1-6.49,1,37.55,37.55,0,0,1-13.94-2.43A35.46,35.46,0,0,1,8.85,32a28.58,28.58,0,0,1-6.56-8.12A17.4,17.4,0,0,1,0,15.8,11.44,11.44,0,0,1,1.7,9.39,12.69,12.69,0,0,1,6.12,5.26a18.61,18.61,0,0,1,6.05-2.14,37.73,37.73,0,0,1,6.56-.59c1.18,0,2.83.1,4.94.29s4.53.45,7.23.74,5.58.54,8.63.74,6,.29,9,.29m-1,1.51s-6.46-.37-9.61-.47c-.49,0-.74.19-.74.59a6,6,0,0,0,.44,1.62c.3.79.64,1.62,1,2.51s.79,1.74,1.18,2.58a15.49,15.49,0,0,0,.89,1.69q3.24,6.06,7.52,13.65c.24.41.46.81.69,1.22,1-1.84,2.11-3.69,3.16-5.58q5-8.88,8.6-16.8c.4-1,.16-1.52-.72-1.63-.24,0-.82-.1-.82-.1"/></g></g></svg>