<svg xmlns="http://www.w3.org/2000/svg" viewBox="0 0 98.66 69.49"><title>logo2</title><g id="Ebene_2" data-name="Ebene 2"><g id="Ebene_1-2" data-name="Ebene 1"><path d="M40,4,38.1,4l-7.67.09q-3.24,0-7.16-.14c-2.6-.12-5.24-.34-7.9-.66s-5.22-.72-7.68-1.24A33.09,33.09,0,0,1,1.32.14,1.38,1.38,0,0,0,.73,0C.24,0,0,.16,0,.45A10.76,10.76,0,0,1,2.1,3.82c.41,1,1,1.47,1.79,1.46,1.77.08,3.69.13,5.75.15L16,5.51l6.27.08c2,0,3.76.08,5.24.16a3.25,3.25,0,0,1,1.7.57,6.35,6.35,0,0,1,1.12,1.32q1.35,1.91,3.45,5.49l4.44,7.55c1.55,2.64,3,5.18,4.36,7.62s2.43,4.4,3.24,5.87c0,.59-.82,1.14-2.49,1.65a26.94,26.94,0,0,1-7.22.81,100.1,100.1,0,0,1-10.26-.4,56.72,56.72,0,0,1-9.38-1.59l-.29.3a5.42,5.42,0,0,0,.45,1.39,3.09,3.09,0,0,0,1.2,1.54c1.08,0,2.44,0,4.06,0L27,38c1.77,0,3.54,0,5.31,0L37,38c1.57,0,3.27-.06,5.09-.13,1.15,0,2.14-.12,3-.22-.89,1.54-1.77,3-2.61,4.46Q39.36,47.22,36,53A106.22,106.22,0,0,0,30.52,63.3,7.59,7.59,0,0,0,29.78,66a2.2,2.2,0,0,0,.89,1.85,6.63,6.63,0,0,0,2.06,1,14.2,14.2,0,0,0,2.43.52c.84.09,1.45.14,1.85.14q3.24,0,6.56-.29c2.21-.2,4.21-.44,6-.74.49-.1.73-.29.73-.59s-.54-.44-1.62-.44a17.33,17.33,0,0,1-7.08-1.11,4,4,0,0,1-2.36-3.91,12.73,12.73,0,0,1,1.62-5.31q2.5-4.86,6.2-11.5c.87-1.57,1.77-3.18,2.67-4.78q4.2,7.07,7,12.33a99.08,99.08,0,0,1,4.46,9.17,7.42,7.42,0,0,1,.46,2.35A2.86,2.86,0,0,1,60.48,67c-.78.65-2.59,1-5.45,1-.59,0-.88.21-.88.6s.26.49.75.58a10.55,10.55,0,0,0,1.77.13l1.62,0q4.58,0,7.3-.23a31.27,31.27,0,0,0,4.2-.49,3.53,3.53,0,0,0,1.84-.75A1.78,1.78,0,0,0,72,66.62a5.61,5.61,0,0,0-.76-2.2,129,129,0,0,0-7.36-11.87q-4.35-6.28-7.51-11.72C55.23,39,54.09,37,53,35.06c.59-1,1.16-2.06,1.76-3.1q4-7,7.89-13.58L69.31,7.1a5,5,0,0,1,3-2.51,27.55,27.55,0,0,1,6.64-.73A17.54,17.54,0,0,1,88,6.07q3.77,2.21,3.76,8.41a21.37,21.37,0,0,1-2,8.85A27.42,27.42,0,0,1,76,37a24.42,24.42,0,0,1-10.4,2.22,25.31,25.31,0,0,1-3.76-.3,14,14,0,0,1-2.73-.59.52.52,0,0,0-.59.59c0,.2.15.39.45.59a18.65,18.65,0,0,0,6.49,1,37.5,37.5,0,0,0,13.93-2.43A35.46,35.46,0,0,0,89.81,32a28.8,28.8,0,0,0,6.57-8.12,17.5,17.5,0,0,0,2.28-8A11.44,11.44,0,0,0,97,9.39a12.81,12.81,0,0,0-4.43-4.13,18.53,18.53,0,0,0-6.05-2.14,37.73,37.73,0,0,0-6.56-.59c-1.18,0-2.83.1-4.94.29s-4.52.45-7.23.74-5.58.54-8.63.74-6,.29-9,.29m1,1.51s6.47-.37,9.62-.47c.49,0,.73.19.73.59a5.59,5.59,0,0,1-.44,1.62c-.29.79-.64,1.62-1,2.51s-.79,1.74-1.18,2.58A15.49,15.49,0,0,1,58,14.62q-3.24,6.06-7.52,13.65l-.69,1.22c-1.05-1.84-2.1-3.69-3.16-5.58Q41.62,15,38,7.11c-.4-1-.16-1.52.72-1.63.24,0,.82-.1.82-.1"/></g></g></svg>